<?xml version="1.0" encoding="UTF-8" standalone="no"?>
<!-- Created with Inkscape (http://www.inkscape.org/) -->

<svg
   xmlns:dc="http://purl.org/dc/elements/1.1/"
   xmlns:cc="http://creativecommons.org/ns#"
   xmlns:rdf="http://www.w3.org/1999/02/22-rdf-syntax-ns#"
   xmlns:svg="http://www.w3.org/2000/svg"
   xmlns="http://www.w3.org/2000/svg"
   xmlns:sodipodi="http://sodipodi.sourceforge.net/DTD/sodipodi-0.dtd"
   xmlns:inkscape="http://www.inkscape.org/namespaces/inkscape"
   width="340.17038mm"
   height="111.4537mm"
   viewBox="0 0 1205.3281 394.9147"
   id="svg4171"
   version="1.1"
   inkscape:version="0.91 r13725"
   sodipodi:docname="MutuoWhite.svg">
  <defs
     id="defs4173" />
  <sodipodi:namedview
     id="base"
     pagecolor="#ffffff"
     bordercolor="#666666"
     borderopacity="1.0"
     inkscape:pageopacity="0.0"
     inkscape:pageshadow="2"
     inkscape:zoom="0.35"
     inkscape:cx="-63.764542"
     inkscape:cy="-131.11405"
     inkscape:document-units="px"
     inkscape:current-layer="layer1"
     showgrid="false"
     fit-margin-top="10"
     fit-margin-left="10"
     fit-margin-right="10"
     fit-margin-bottom="10"
     inkscape:window-width="1965"
     inkscape:window-height="1257"
     inkscape:window-x="-8"
     inkscape:window-y="1720"
     inkscape:window-maximized="1" />
  <metadata
     id="metadata4176">
    <rdf:RDF>
      <cc:Work
         rdf:about="">
        <dc:format>image/svg+xml</dc:format>
        <dc:type
           rdf:resource="http://purl.org/dc/dcmitype/StillImage" />
        <dc:title></dc:title>
      </cc:Work>
    </rdf:RDF>
  </metadata>
  <g
     inkscape:label="Layer 1"
     inkscape:groupmode="layer"
     id="layer1"
     transform="translate(-11.621689,-6.3334277)">
    <path
       inkscape:export-ydpi="90"
       inkscape:export-xdpi="90"
       id="path4148"
       d="m 47.05476,72.674469 0,287.511701 55.85742,0 0,-196.14842 53.25781,196.14842 59.75586,0 53.69141,-197.01561 0,197.01561 56.28906,0 0,-287.511701 -22.40625,0 0,34.513671 c 0,9.12147 -7.34337,16.46485 -16.46484,16.46485 l -7.5332,0 c -9.12147,0 -16.46485,-7.34338 -16.46485,-16.46485 l 0,-34.513671 -23.73047,0 -51.95898,210.871131 -51.96094,-210.871131 -22.29883,0 0,35.019531 c 0,9.12147 -7.34337,16.46485 -16.46484,16.46485 l -7.53516,0 c -9.12146,0 -16.46484,-7.34338 -16.46484,-16.46485 l 0,-35.019531 -25.56836,0 z"
       style="font-style:normal;font-variant:normal;font-weight:normal;font-stretch:normal;font-size:433.0007019px;line-height:125%;font-family:Coolvetica;-inkscape-font-specification:Coolvetica;letter-spacing:0px;word-spacing:0px;display:inline;fill:#ffffff;fill-opacity:1;stroke:none;stroke-width:1px;stroke-linecap:butt;stroke-linejoin:miter;stroke-opacity:1"
       inkscape:connector-curvature="0" />
    <path
       inkscape:export-ydpi="90"
       inkscape:export-xdpi="90"
       d="m 485.4477,360.18607 0,-29.877 q -21.65,35.506 -66.2491,35.506 -16.021,0 -29.4441,-5.629 -12.99,-5.629 -22.516,-16.021 -9.52603,-10.392 -15.15504,-24.681 -5.196,-14.2891 -5.196,-32.04207 l 0,-140.29222 56.29014,0 0,131.63222 q 0,39.83607 35.939,39.83607 21.65,0 32.4751,-13.4231 11.258,-13.856 11.258,-35.07297 l 0,-122.97222 55.8571,0 0,213.03629 -53.2591,0 z"
       style="font-style:normal;font-variant:normal;font-weight:normal;font-stretch:normal;font-size:433.0007019px;line-height:125%;font-family:Coolvetica;-inkscape-font-specification:Coolvetica;letter-spacing:0px;word-spacing:0px;display:inline;fill:#ffffff;fill-opacity:1;stroke:none;stroke-width:1px;stroke-linecap:butt;stroke-linejoin:miter;stroke-opacity:1"
       id="path4150"
       inkscape:connector-curvature="0" />
    <path
       inkscape:export-ydpi="90"
       inkscape:export-xdpi="90"
       d="m 681.658,219.8939 52.393,0 0,60.6201 q 0,16.88697 -5.196,32.47507 -4.763,15.155 -15.588,27.279 -10.392,11.691 -26.846,18.619 -16.0211,6.928 -38.5371,6.928 -23.382,0 -39.8361,-6.928 -16.454,-6.928 -27.279,-18.619 -10.392,-11.691 -15.155,-27.279 -4.763,-15.5881 -4.763,-32.90807 l 0,-190.520321 55.424,0 0,57.589101 117.7762,0 0,39.83606 -117.7762,0 0,87.46616 q 0,20.35097 7.3611,31.60897 7.794,10.8251 25.114,10.8251 16.887,0 24.681,-10.8251 8.2271,-10.825 8.2271,-30.74297 l 0,-55.4241 z"
       style="font-style:normal;font-variant:normal;font-weight:normal;font-stretch:normal;font-size:433.0007019px;line-height:125%;font-family:Coolvetica;-inkscape-font-specification:Coolvetica;letter-spacing:0px;word-spacing:0px;display:inline;fill:#ffffff;fill-opacity:1;stroke:none;stroke-width:1px;stroke-linecap:butt;stroke-linejoin:miter;stroke-opacity:1"
       id="path4152"
       inkscape:connector-curvature="0" />
    <path
       inkscape:export-ydpi="90"
       inkscape:export-xdpi="90"
       d="m 893.0773,360.18607 0,-29.877 q -21.65,35.506 -66.2491,35.506 -16.021,0 -29.4441,-5.629 -12.99,-5.629 -22.516,-16.021 -9.526,-10.392 -15.155,-24.681 -5.196,-14.2891 -5.196,-32.04207 l 0,-140.29222 56.2901,0 0,131.63222 q 0,39.83607 35.939,39.83607 21.6501,0 32.4751,-13.4231 11.258,-13.856 11.258,-35.07297 l 0,-122.97222 55.8571,0 0,213.03629 -53.2591,0 z"
       style="font-style:normal;font-variant:normal;font-weight:normal;font-stretch:normal;font-size:433.0007019px;line-height:125%;font-family:Coolvetica;-inkscape-font-specification:Coolvetica;letter-spacing:0px;word-spacing:0px;display:inline;fill:#ffffff;fill-opacity:1;stroke:none;stroke-width:1px;stroke-linecap:butt;stroke-linejoin:miter;stroke-opacity:1"
       id="path4154"
       inkscape:connector-curvature="0" />
    <path
       inkscape:export-ydpi="90"
       inkscape:export-xdpi="90"
       d="m 1073.2665,318.61807 q 51.5271,0 51.5271,-64.95017 0,-64.51705 -51.5271,-64.51705 -51.5271,0 -51.5271,64.51705 0,64.95017 51.5271,64.95017 z m 0,47.197 q -25.9801,0 -46.3311,-8.227 -20.351,-8.227 -34.6401,-22.949 -13.8559,-14.722 -21.217,-35.5061 -7.361,-20.78397 -7.361,-45.46497 0,-25.1141 7.361,-45.8981 7.7941,-20.78406 22.0831,-35.50608 14.289,-14.72203 34.207,-22.51604 20.351,-8.22701 45.8981,-8.22701 25.114,0 45.0321,8.22701 19.918,7.79401 33.774,22.51604 14.289,14.28902 21.65,35.07308 7.7941,20.784 7.7941,46.3311 0,25.547 -7.7941,46.33097 -7.361,20.3511 -21.65,35.0731 -13.856,14.722 -34.207,22.949 -19.9181,7.794 -44.5991,7.794 z"
       style="font-style:normal;font-variant:normal;font-weight:normal;font-stretch:normal;font-size:433.0007019px;line-height:125%;font-family:Coolvetica;-inkscape-font-specification:Coolvetica;letter-spacing:0px;word-spacing:0px;display:inline;fill:#ffffff;fill-opacity:1;stroke:none;stroke-width:1px;stroke-linecap:butt;stroke-linejoin:miter;stroke-opacity:1"
       id="path4156"
       inkscape:connector-curvature="0" />
    <rect
       inkscape:export-ydpi="90"
       inkscape:export-xdpi="90"
       rx="0"
       ry="12.908007"
       y="41.766499"
       x="270.52246"
       height="73.320381"
       width="25.816013"
       id="rect4158"
       style="display:inline;fill:#ffffff;fill-opacity:1;stroke:none;stroke-width:12.1099329;stroke-miterlimit:4;stroke-dasharray:none;stroke-opacity:1" />
    <rect
       inkscape:export-ydpi="90"
       inkscape:export-xdpi="90"
       style="display:inline;fill:#ffffff;fill-opacity:1;stroke:none;stroke-width:12.1099329;stroke-miterlimit:4;stroke-dasharray:none;stroke-opacity:1"
       id="rect4160"
       width="25.816013"
       height="73.320381"
       x="80.522461"
       y="41.766499"
       ry="12.908007"
       rx="0" />
  </g>
</svg>
