<svg xmlns="http://www.w3.org/2000/svg" viewBox="0 0 371.23 234.12"><defs><style>.cls-1,.cls-7{fill:#fff;}.cls-1,.cls-3,.cls-5{fill-rule:evenodd;}.cls-2{fill:#a1a3a6;}.cls-3,.cls-4{fill:#119090;}.cls-5,.cls-8{fill:#1a646b;}.cls-6{fill:#6b200a;}.cls-9{fill:#91481e;}.cls-10{fill:#ebf7ff;}.cls-11{fill:#441900;}.cls-12{fill:gray;}.cls-13,.cls-14,.cls-15{fill:none;stroke:#b3b3b3;stroke-miterlimit:10;stroke-width:2px;}.cls-14{stroke-dasharray:5.79 1.93;}.cls-15{stroke-dasharray:6 2;}</style></defs><title>SelfServe</title><g id="Layer_2" data-name="Layer 2"><g id="Layer_1-2" data-name="Layer 1"><polygon class="cls-1" points="142.19 201.46 184.46 203.58 194.77 166.08 213.46 146.33 156.63 137.04 142.19 201.46"/><path class="cls-2" d="M184.55,203.7h-.1L142,201.58l14.49-64.67.11,0,57.06,9.32-18.83,19.89Zm-42.21-2.35,42,2.1L194.66,166l18.56-19.61-56.5-9.23Z"/><path class="cls-1" d="M222.24,74.33h0a5.59,5.59,0,0,1,.49,7.83l-35,40.65a5.54,5.54,0,0,1-7.82.49h0a5.58,5.58,0,0,1-.49-7.82l35-40.65A5.54,5.54,0,0,1,222.24,74.33Z"/><path class="cls-2" d="M183.55,124.81a5.64,5.64,0,0,1-3.75-1.42,5.72,5.72,0,0,1-.5-8l35-40.65a5.52,5.52,0,0,1,3.84-1.91,5.65,5.65,0,0,1,4.15,1.4h0a5.72,5.72,0,0,1,.5,8l-35,40.65A5.52,5.52,0,0,1,184,124.8Zm35-51.74h-.38a5.28,5.28,0,0,0-3.67,1.82l-35,40.65a5.48,5.48,0,0,0,.48,7.66,5.41,5.41,0,0,0,4,1.35,5.28,5.28,0,0,0,3.68-1.82l35-40.65a5.48,5.48,0,0,0-.48-7.66A5.4,5.4,0,0,0,218.57,73.07Z"/><polygon class="cls-3" points="148.77 168.19 192.46 177.99 182 224.65 135.28 228.38 148.77 168.19"/><path class="cls-4" d="M135.13,228.52,148.68,168l43.92,9.84-10.51,46.87Zm13.73-60.18-13.43,59.92,46.46-3.72,10.41-46.46Z"/><polygon class="cls-5" points="185.02 233.14 194.29 192.45 141.72 180.67 129.78 233.14 185.02 233.14"/><path class="cls-6" d="M185.12,233.26H129.63l12-52.74.12,0,52.69,11.81,0,.12ZM129.93,233h55l9.22-40.48-52.34-11.73Z"/><rect class="cls-7" x="217.09" y="63.44" width="1.03" height="9.42"/><path class="cls-7" d="M217.67,89.23V67.36c0-1.15,0-2.2,0-3.19s0-1.83-.11-2.85V59.25a14.64,14.64,0,0,0-.85-4.94,12.25,12.25,0,0,0-11.57-8H169.24a12.23,12.23,0,0,0-11.51,7.88l-.15.43c-.16.37-.32.76-.48,1.17-.59,2.47-.36,5.94-.36,8.41,0,1,0,2,0,3.19V89.23h0v25.09h0v21.87c0,1.15,0,2.2,0,3.19,0,2.47-.23,5.94.36,8.41.16.41.31.8.48,1.17a15.51,15.51,0,0,0,7,8.45,10.71,10.71,0,0,0,1.86.91,16.53,16.53,0,0,0,2.84.89A76.68,76.68,0,0,0,187.19,161a76.69,76.69,0,0,0,17.91-1.83,16.55,16.55,0,0,0,2.84-.89,10.71,10.71,0,0,0,1.86-.92,15.18,15.18,0,0,0,7.77-13.12v-2.07c.08-1,.12-2,.11-2.85s0-2,0-3.19V114.31h0V89.23Z"/><path class="cls-2" d="M187.19,161.17a77.39,77.39,0,0,1-17.94-1.84,16.68,16.68,0,0,1-2.86-.9,10.83,10.83,0,0,1-1.88-.92,15.6,15.6,0,0,1-7.06-8.51c-.17-.4-.33-.78-.47-1.17a29.68,29.68,0,0,1-.39-6.87c0-.56,0-1.09,0-1.58s0-1.06,0-1.62,0-1,0-1.58V89.11h0V67.36c0-.55,0-1.07,0-1.58s0-1.09,0-1.62,0-1,0-1.58a29.76,29.76,0,0,1,.38-6.86c.15-.4.3-.78.48-1.19l.15-.43a12.38,12.38,0,0,1,11.62-8h35.91a12.38,12.38,0,0,1,11.68,8.12,14.75,14.75,0,0,1,.86,5v2.07c.08,1,.12,2,.11,2.85,0,.52,0,1.05,0,1.61s0,1,0,1.58V89.11h0v47.07c0,.55,0,1.08,0,1.58s0,1.09,0,1.61c0,.85,0,1.84-.11,2.86v2.06a15.2,15.2,0,0,1-7.83,13.22,10.85,10.85,0,0,1-1.87.92,16.71,16.71,0,0,1-2.86.9A77.39,77.39,0,0,1,187.19,161.17Zm-30.33-47v22c0,.55,0,1.07,0,1.58s0,1.09,0,1.62,0,1,0,1.59a29.61,29.61,0,0,0,.37,6.8c.14.36.29.74.47,1.15a15.37,15.37,0,0,0,7,8.39,10.6,10.6,0,0,0,1.84.91,16.48,16.48,0,0,0,2.82.89,77.16,77.16,0,0,0,17.88,1.83,77.16,77.16,0,0,0,17.88-1.83,16.51,16.51,0,0,0,2.82-.89,10.62,10.62,0,0,0,1.84-.91,15,15,0,0,0,7.72-13v-2.07c.08-1,.12-2,.11-2.85,0-.52,0-1.05,0-1.61s0-1,0-1.59v-22h0V67.36c0-.55,0-1.08,0-1.59s0-1.09,0-1.61c0-.84,0-1.83-.11-2.84V59.25a14.51,14.51,0,0,0-.85-4.9,12.14,12.14,0,0,0-11.46-8H169.24a12.14,12.14,0,0,0-11.4,7.8l-.15.43c-.18.41-.33.8-.48,1.17a29.7,29.7,0,0,0-.37,6.78c0,.56,0,1.09,0,1.59s0,1.06,0,1.62,0,1,0,1.58v22h0Z"/><path class="cls-8" d="M215.64,67.36c0-.55,0-1.08,0-1.6s0-1.08,0-1.6c0-.79,0-1.73-.11-2.69V59.25A12.76,12.76,0,0,0,213.29,52a9.36,9.36,0,0,0-7.74-4h-36.7A9.41,9.41,0,0,0,161,52.19a13,13,0,0,0-1.48,3l0,.08,0,.08c-.14.33-.27.65-.39,1a29.45,29.45,0,0,0-.3,6.22c0,.57,0,1.11,0,1.63s0,1,0,1.6,0,1,0,1.59v45h0v23.87c0,.55,0,1.08,0,1.59s0,1.08,0,1.61,0,1,0,1.62a29.45,29.45,0,0,0,.3,6.22c.12.31.25.62.39,1l0,.08,0,.08a13.48,13.48,0,0,0,6.11,7.35l0,0,0,0a8.73,8.73,0,0,0,1.5.73l0,0a14.52,14.52,0,0,0,2.49.78l.07,0a75.18,75.18,0,0,0,17.4,1.77,75.19,75.19,0,0,0,17.4-1.77l.07,0a14.5,14.5,0,0,0,2.49-.78l0,0a8.71,8.71,0,0,0,1.5-.73l0,0,0,0a13.1,13.1,0,0,0,6.77-11.39v-2.21c.07-1,.11-1.9.11-2.7,0-.51,0-1,0-1.59s0-1,0-1.6v-45h0Z"/><path class="cls-6" d="M187.19,159.17a75.31,75.31,0,0,1-17.43-1.77l-.07,0a14.62,14.62,0,0,1-2.5-.79l0,0a8.82,8.82,0,0,1-1.52-.74l-.08,0a13.6,13.6,0,0,1-6.16-7.41l-.06-.15c-.15-.34-.28-.65-.39-1a29.39,29.39,0,0,1-.31-6.26c0-.57,0-1.11,0-1.62s0-.94,0-1.42v-.38c0-.45,0-.91,0-1.39V67.36c0-.48,0-.94,0-1.39v-.39c0-.48,0-1,0-1.41s0-1.06,0-1.62a29.52,29.52,0,0,1,.3-6.24c.12-.33.25-.64.4-1l.06-.15a13.08,13.08,0,0,1,1.49-3.05,9.5,9.5,0,0,1,8-4.22h36.7a9.46,9.46,0,0,1,7.84,4,12.89,12.89,0,0,1,2.26,7.31v2.21c.07,1,.11,1.91.11,2.7,0,.52,0,1.05,0,1.6s0,1,0,1.6v68.82c0,.55,0,1.08,0,1.6s0,1.08,0,1.59c0,.8,0,1.74-.11,2.71v2.21a13.22,13.22,0,0,1-6.83,11.49l-.08,0a8.8,8.8,0,0,1-1.52.74l0,0a14.6,14.6,0,0,1-2.51.79l-.07,0A75.32,75.32,0,0,1,187.19,159.17Zm-28.29-47v24c0,.48,0,.95,0,1.4V138c0,.48,0,1,0,1.42s0,1.05,0,1.62a29.37,29.37,0,0,0,.3,6.19q.17.44.39.94l.06.17a13.36,13.36,0,0,0,6.05,7.28l.09.05a8.59,8.59,0,0,0,1.48.72l0,0a14.39,14.39,0,0,0,2.47.78l.07,0a75.06,75.06,0,0,0,17.37,1.77,75.07,75.07,0,0,0,17.37-1.77l.07,0a14.38,14.38,0,0,0,2.47-.78l0,0a8.58,8.58,0,0,0,1.48-.72l.09-.05a13,13,0,0,0,6.71-11.29v-2.22c.07-1,.11-1.9.11-2.69,0-.51,0-1,0-1.59s0-1,0-1.6V67.36c0-.55,0-1.08,0-1.6s0-1.08,0-1.6c0-.79,0-1.72-.11-2.69V61.4s-.77-7.2-2.22-9.32a9.22,9.22,0,0,0-7.64-3.95h-36.7a9.26,9.26,0,0,0-7.76,4.12,12.84,12.84,0,0,0-1.47,3l-.06.17c-.14.33-.27.65-.39,1a29.52,29.52,0,0,0-.29,6.17c0,.57,0,1.11,0,1.63s0,.92,0,1.41V66c0,.45,0,.91,0,1.4v44.83Z"/><circle class="cls-9" cx="186.66" cy="151.69" r="3.75"/><path class="cls-9" d="M186.66,155.56a3.87,3.87,0,1,1,3.87-3.87A3.88,3.88,0,0,1,186.66,155.56Zm0-7.51a3.63,3.63,0,1,0,3.63,3.63A3.64,3.64,0,0,0,186.66,148.05Z"/><rect class="cls-4" x="162.23" y="61.24" width="49.93" height="82.75"/><path class="cls-4" d="M212.28,144.11H162.11v-83h50.17Zm-49.93-.24H212V61.36H162.35Z"/><path class="cls-9" d="M194.77,55.25a.84.84,0,0,1-.88.79H180.5a.84.84,0,0,1-.88-.79h0a.84.84,0,0,1,.88-.79h13.39a.84.84,0,0,1,.88.79Z"/><path class="cls-9" d="M193.89,56.15H180.5a.91.91,0,1,1,0-1.81h13.39a.91.91,0,1,1,0,1.81ZM180.5,54.58a.67.67,0,1,0,0,1.33h13.39a.67.67,0,1,0,0-1.33Z"/><circle class="cls-9" cx="200.61" cy="54.5" r="1.33"/><path class="cls-9" d="M200.61,56a1.45,1.45,0,1,1,1.45-1.45A1.46,1.46,0,0,1,200.61,56Zm0-2.67a1.21,1.21,0,1,0,1.21,1.21A1.22,1.22,0,0,0,200.61,53.29Z"/><path class="cls-1" d="M223.24,105.18h0a5.57,5.57,0,0,1,.49,7.82l-6.83,7.78a5.56,5.56,0,0,1-7.82.49h0a5.56,5.56,0,0,1-.49-7.82l6.83-7.78A5.55,5.55,0,0,1,223.24,105.18Z"/><path class="cls-2" d="M212.74,122.77a5.62,5.62,0,0,1-3.74-1.41,5.68,5.68,0,0,1-.5-8l6.83-7.78a5.67,5.67,0,0,1,8-.5,5.68,5.68,0,0,1,.5,8L217,120.86a5.6,5.6,0,0,1-3.88,1.9Zm6.85-18.85h-.35a5.37,5.37,0,0,0-3.72,1.82l-6.83,7.78a5.42,5.42,0,0,0,4.41,9,5.37,5.37,0,0,0,3.72-1.82l6.83-7.78a5.44,5.44,0,0,0-.48-7.65h0A5.38,5.38,0,0,0,219.58,103.91Z"/><path class="cls-1" d="M224,119.68h0a5.57,5.57,0,0,1,.49,7.82l-6.83,7.78a5.56,5.56,0,0,1-7.82.49h0a5.56,5.56,0,0,1-.49-7.82l6.83-7.78A5.55,5.55,0,0,1,224,119.68Z"/><path class="cls-2" d="M213.49,137.27a5.62,5.62,0,0,1-3.74-1.41,5.68,5.68,0,0,1-.5-8l6.83-7.78a5.67,5.67,0,0,1,8-.5,5.68,5.68,0,0,1,.5,8l-6.83,7.78a5.6,5.6,0,0,1-3.88,1.9Zm6.85-18.85H220a5.37,5.37,0,0,0-3.72,1.82L209.43,128a5.42,5.42,0,0,0,4.41,9,5.37,5.37,0,0,0,3.72-1.82l6.83-7.78a5.44,5.44,0,0,0-.48-7.65h0A5.38,5.38,0,0,0,220.34,118.42Z"/><path class="cls-1" d="M223.49,89.34h0a5.57,5.57,0,0,1,.49,7.83l-5.82,6.62a5.56,5.56,0,0,1-7.82.49h0a5.56,5.56,0,0,1-.49-7.82l5.82-6.62A5.55,5.55,0,0,1,223.49,89.34Z"/><path class="cls-2" d="M214,105.77a5.62,5.62,0,0,1-3.74-1.41,5.68,5.68,0,0,1-.5-8l5.82-6.62a5.67,5.67,0,0,1,8-.5h0a5.68,5.68,0,0,1,.5,8l-5.82,6.62a5.6,5.6,0,0,1-3.88,1.9Zm5.83-17.7h-.35a5.37,5.37,0,0,0-3.72,1.82l-5.82,6.62a5.42,5.42,0,0,0,4.41,9,5.36,5.36,0,0,0,3.72-1.82l5.82-6.62a5.44,5.44,0,0,0-.48-7.66A5.38,5.38,0,0,0,219.83,88.07Z"/><rect class="cls-9" x="168.96" y="68.55" width="36.74" height="6.17"/><rect class="cls-10" x="168.96" y="77.94" width="36.74" height="26.26"/><path class="cls-10" d="M205.82,104.32h-37V77.82h37Zm-36.74-.24h36.5v-26h-36.5Z"/><rect x="169.07" y="109.82" width="36.23" height="1.33"/><rect x="169.07" y="114.11" width="36.23" height="1.33"/><rect x="169.07" y="118.4" width="36.23" height="1.33"/><rect x="169.07" y="122.69" width="36.23" height="1.33"/><rect x="169.07" y="126.98" width="36.23" height="1.33"/><rect x="169.07" y="131.27" width="36.23" height="1.33"/><path class="cls-1" d="M152.32,162.82c-4-.9-6.86-5.22-6.27-9.58l5.5-41c1-7.66,12.54-6.43,11.84,1.26q0,.41-.09.84l-2.85,26.91s15.69,5.23,11.53,20.33"/><path class="cls-2" d="M152.29,162.93c-4.1-.92-7-5.28-6.36-9.71l5.5-41a5.86,5.86,0,0,1,6.74-5.23,5.79,5.79,0,0,1,5.34,6.52c0,.28-.06.56-.1.84l-2.84,26.81a22.75,22.75,0,0,1,7.28,4.5c3.13,2.94,6.4,8.09,4.24,15.94l-.23-.06c2.13-7.74-1.09-12.81-4.17-15.7a22.36,22.36,0,0,0-7.29-4.48l-.09,0,2.86-27c0-.28.07-.56.09-.84a5.56,5.56,0,0,0-5.13-6.26,5.63,5.63,0,0,0-6.47,5l-5.5,41c-.58,4.31,2.19,8.55,6.18,9.44Z"/><path class="cls-1" d="M199.17,175.81c-5.86-3.57-12.21,3.81-7.83,9.09l13.71,16.5c9.6,12.64,19,11.89,19,11.89s-3.11-15-5.71-18l-14.85-15.85A21.11,21.11,0,0,0,199.17,175.81Z"/><path class="cls-2" d="M223.82,213.42c-1.59,0-10.21-.56-18.86-11.95L191.25,185a6.2,6.2,0,0,1,8-9.27h0a21.39,21.39,0,0,1,4.36,3.66l14.85,15.85c2.6,3,5.61,17.43,5.74,18l0,.13h-.39ZM196,175a6,6,0,0,0-4.47,2.11,5.82,5.82,0,0,0-.08,7.72l13.71,16.5c8.82,11.62,17.57,11.88,18.78,11.86-.32-1.52-3.23-15-5.65-17.79l-14.85-15.85a21.14,21.14,0,0,0-4.31-3.62h0A6,6,0,0,0,196,175Z"/><path class="cls-1" d="M213.46,195.69l-32.67-58.56c-5.18-9.27,8.5-14.31,12.55-6.58l16.79,31.29c.66-6,9.54-7.58,13.22-2.3-.16-6.2,8.07-8.41,12.34-4.27.79-5.74,9.73-7,12.86-1.22l14.35,26.51c4,7.44,5.18,19.2,4.06,24.71-3.32,16.35-24.41,18.55-32.24,14.23-6.11-3.37-10.83-5.09-13-9"/><path class="cls-2" d="M243.94,221.53a20,20,0,0,1-9.26-1.93c-1.27-.7-2.46-1.32-3.61-1.92-4.31-2.24-7.71-4-9.48-7.17l.21-.12c1.73,3.1,5.11,4.86,9.38,7.08,1.15.6,2.35,1.22,3.62,1.92,4.41,2.43,13.46,2.86,21-.62a18.82,18.82,0,0,0,11.08-13.53c1-5.1.19-16.8-4.05-24.63L248.46,154.1a7.15,7.15,0,0,0-7.68-3.58,5.72,5.72,0,0,0-5,4.76l0,.23-.17-.16a7.88,7.88,0,0,0-8.47-1.43,5.77,5.77,0,0,0-3.67,5.61v.4l-.23-.33a7.7,7.7,0,0,0-8.2-2.89,6.07,6.07,0,0,0-4.81,5.14l0,.38-17-31.63a6.87,6.87,0,0,0-6-3.72,7.48,7.48,0,0,0-6.63,3.31c-.84,1.38-1.46,3.69.32,6.88l32.67,58.56-.21.12-32.67-58.56c-1.44-2.57-1.55-5.1-.32-7.12a7.72,7.72,0,0,1,6.84-3.42,7.1,7.1,0,0,1,6.23,3.85l16.62,31a6.35,6.35,0,0,1,4.94-5,8,8,0,0,1,8.23,2.69A6.08,6.08,0,0,1,227,153.7a8.15,8.15,0,0,1,8.57,1.32,6,6,0,0,1,5.12-4.73,7.39,7.39,0,0,1,7.93,3.7L263,180.49c3.9,7.21,5.28,18.86,4.08,24.79A19,19,0,0,1,255.88,219,28.88,28.88,0,0,1,243.94,221.53Z"/><polyline class="cls-1" points="221.7 210.45 235.18 233.98 285.24 233.98 267.38 200.2"/><polygon class="cls-2" points="285.43 234.1 235.11 234.1 235.07 234.04 221.59 210.51 221.8 210.39 235.25 233.86 285.04 233.86 267.27 200.26 267.49 200.15 285.43 234.1"/><polygon class="cls-3" points="280.99 222.54 269.59 200.2 225.6 221.4 232.86 233.98 280.99 222.54"/><path class="cls-4" d="M232.8,234.12l0-.08-7.32-12.7.12-.06L269.65,200l11.52,22.57-.15,0Zm-7-12.67,7.15,12.39,47.89-11.39-11.28-22.09Z"/><polygon class="cls-5" points="289.73 233.89 278.97 210.05 230.3 233.89 289.73 233.89"/><path class="cls-6" d="M289.91,234H229.79L279,209.88l.05.11Zm-59.09-.24h58.72l-10.63-23.56Z"/><path class="cls-4" d="M28,56.47,13.42,59.89a5.94,5.94,0,0,1-5.31,7.17v35h25V61.34A5.69,5.69,0,0,1,28,56.47Zm52.09,1.37L65.14,62.39A5.71,5.71,0,0,1,60.2,69.6v32.48h25V62A5.77,5.77,0,0,1,80.07,57.85Zm-26.18,6a5.73,5.73,0,0,1,.26-1.72L39.14,57a5.7,5.7,0,0,1-5,4.34v40.74h25V69.6A5.73,5.73,0,0,1,53.88,63.89Z"/><path class="cls-9" d="M7.61,53.53a7.61,7.61,0,1,0,7.61,7.61A7.61,7.61,0,0,0,7.61,53.53Zm0,11.41a3.8,3.8,0,1,1,3.8-3.8A3.8,3.8,0,0,1,7.61,64.94Zm52-8.65a7.61,7.61,0,1,0,7.61,7.61A7.61,7.61,0,0,0,59.61,56.29Zm0,11.41a3.8,3.8,0,1,1,3.8-3.8A3.8,3.8,0,0,1,59.61,67.7Zm-26-19.64a7.61,7.61,0,1,0,7.61,7.61A7.61,7.61,0,0,0,33.61,48.06Zm0,11.41a3.8,3.8,0,1,1,3.8-3.8A3.8,3.8,0,0,1,33.61,59.47Zm52-10.79a7.61,7.61,0,1,0,7.61,7.61A7.61,7.61,0,0,0,85.62,48.68Zm0,11.41a3.8,3.8,0,1,1,3.8-3.8A3.8,3.8,0,0,1,85.62,60.09Z"/><path class="cls-11" d="M26,55.19,14.36,57.64a7.56,7.56,0,0,1,.85,3.49c0,.16,0,.32,0,.48l11.67-2.45A7.57,7.57,0,0,1,26,55.67C26,55.5,26,55.35,26,55.19ZM78,56.4,66.07,59.89a7.55,7.55,0,0,1,1.14,3.89l11.95-3.49A7.56,7.56,0,0,1,78,56.4ZM40,59.81l12,3.81a7.56,7.56,0,0,1,1.22-3.87l-12-3.81A7.56,7.56,0,0,1,40,59.81Z"/><path class="cls-11" d="M298.07,11.24a16.86,16.86,0,0,1,12,5l8-8a28.16,28.16,0,0,0-39.82,0l8,8A16.86,16.86,0,0,1,298.07,11.24Z"/><path class="cls-9" d="M318,8.25l-8,8a16.86,16.86,0,0,1,5,12h11.24A28.07,28.07,0,0,0,318,8.25Z"/><path class="cls-4" d="M298.07,45.07a16.91,16.91,0,0,1-12-28.87l-8-8a28.16,28.16,0,1,0,48.07,19.91H315A16.91,16.91,0,0,1,298.07,45.07Z"/><polygon class="cls-9" points="356.03 146.67 356.03 90.46 354.25 90.46 354.25 146.67 331.65 146.67 331.65 90.46 329.87 90.46 329.87 146.67 307.27 146.67 307.27 90.46 305.49 90.46 305.49 146.67 282.9 146.67 282.9 90.46 281.11 90.46 281.11 148.46 371.23 148.46 371.23 146.67 356.03 146.67"/><rect class="cls-4" x="282.9" y="129.28" width="34.98" height="13.38"/><rect class="cls-8" x="282.9" y="129.28" width="17.49" height="13.38"/><rect class="cls-4" x="282.9" y="94.49" width="72.15" height="13.38"/><rect class="cls-8" x="282.9" y="94.49" width="23.57" height="13.38"/><rect class="cls-4" x="282.9" y="111.88" width="47.94" height="13.38"/><rect class="cls-8" x="282.9" y="111.89" width="23.57" height="13.38"/><line class="cls-12" x1="152.23" y1="79.16" x2="90.23" y2="79.16"/><line class="cls-13" x1="152.23" y1="79.16" x2="149.23" y2="79.16"/><line class="cls-14" x1="147.29" y1="79.16" x2="94.19" y2="79.16"/><line class="cls-13" x1="93.23" y1="79.16" x2="90.23" y2="79.16"/><path class="cls-12" d="M146.23,32.16"/><polyline class="cls-15" points="189.77 47.9 189.77 25.16 270.23 25.16"/><polyline class="cls-15" points="215.23 61.16 253.23 61.16 253.23 122.16 281.17 122.16"/></g></g></svg>